<?xml version="1.0" encoding="UTF-8" standalone="no"?>
<!-- Created with Inkscape (http://www.inkscape.org/) -->

<svg
   width="760.95917"
   height="200.40366"
   viewBox="0 0 201.33711 53.023467"
   version="1.1"
   id="svg1"
   xml:space="preserve"
   xmlns="http://www.w3.org/2000/svg"
   xmlns:svg="http://www.w3.org/2000/svg"><defs
     id="defs1" /><g
     id="layer1"
     transform="translate(-29.684344,-53.849548)"><g
       id="g36"
       transform="matrix(0.35277778,0,0,0.35277778,-123.79225,-62.544037)"><path
         fill="#2139e1"
         d="m 457.03906,351.92187 c -29.3164,29.31641 -29.3164,77.01172 0,106.32813 29.31641,29.31641 77.01563,29.31641 106.32813,0 29.3164,-29.31641 29.3164,-77.01172 0,-106.32813 -29.3125,-29.3164 -77.01563,-29.3164 -106.32813,0 z m 81.01172,91.13672 -27.84766,-27.84765 -27.84765,27.84765 27.53125,-84.27734 z m 0,0"
         fill-opacity="1"
         fill-rule="nonzero"
         id="path1" /><g
         fill="#2139e1"
         fill-opacity="1"
         id="g4"><g
           transform="translate(594.39115,429.3417)"
           id="g3"><g
             id="g2"><path
               d="M 4.703125,0 V -49.890625 H 22.59375 L 32.5,-6.421875 h 1.28125 v -43.46875 h 9.265625 V 0 H 25.15625 L 15.25,-43.484375 H 13.96875 V 0 Z m 0,0"
               id="path2" /></g></g></g><g
         fill="#2139e1"
         fill-opacity="1"
         id="g7"><g
           transform="translate(642.14332,429.3417)"
           id="g6"><g
             id="g5"><path
               d="M 24.09375,1 C 17.820312,1 12.832031,-0.722656 9.125,-4.171875 5.414062,-7.617188 3.5625,-12.546875 3.5625,-18.953125 V -30.9375 c 0,-6.414062 1.851562,-11.34375 5.5625,-14.78125 3.707031,-3.445312 8.695312,-5.171875 14.96875,-5.171875 6.269531,0 11.257812,1.726563 14.96875,5.171875 3.707031,3.4375 5.5625,8.367188 5.5625,14.78125 v 11.984375 c 0,6.40625 -1.855469,11.335937 -5.5625,14.78125 C 35.351562,-0.722656 30.363281,1 24.09375,1 Z m 0,-8.40625 c 3.519531,0 6.253906,-1.019531 8.203125,-3.0625 1.945313,-2.050781 2.921875,-4.785156 2.921875,-8.203125 V -31.21875 c 0,-3.425781 -0.976562,-6.160156 -2.921875,-8.203125 -1.949219,-2.039063 -4.683594,-3.0625 -8.203125,-3.0625 -3.46875,0 -6.195312,1.023437 -8.171875,3.0625 -1.96875,2.042969 -2.953125,4.777344 -2.953125,8.203125 v 12.546875 c 0,3.417969 0.984375,6.152344 2.953125,8.203125 1.976563,2.042969 4.703125,3.0625 8.171875,3.0625 z m 0,0"
               id="path4" /></g></g></g><g
         fill="#2139e1"
         fill-opacity="1"
         id="g10"><g
           transform="translate(690.32313,429.3417)"
           id="g9"><g
             id="g8"><path
               d="M 4.703125,0 V -49.890625 H 26.375 c 3.132812,0 5.863281,0.546875 8.1875,1.640625 2.332031,1.085938 4.140625,2.625 5.421875,4.625 1.28125,2 1.921875,4.355469 1.921875,7.0625 v 0.84375 c 0,3 -0.714844,5.429688 -2.140625,7.28125 -1.417969,1.855469 -3.171875,3.210938 -5.265625,4.0625 v 1.28125 c 1.894531,0.09375 3.363281,0.75 4.40625,1.96875 1.050781,1.210938 1.578125,2.808594 1.578125,4.796875 V 0 h -9.40625 v -14.96875 c 0,-1.144531 -0.296875,-2.070312 -0.890625,-2.78125 -0.59375,-0.707031 -1.578125,-1.0625 -2.953125,-1.0625 h -13.125 V 0 Z m 9.40625,-27.375 H 25.375 c 2.226562,0 3.972656,-0.601562 5.234375,-1.8125 C 31.867188,-30.394531 32.5,-32 32.5,-34 v -0.71875 c 0,-1.988281 -0.621094,-3.585938 -1.859375,-4.796875 C 29.410156,-40.734375 27.65625,-41.34375 25.375,-41.34375 H 14.109375 Z m 0,0"
               id="path7" /></g></g></g><g
         fill="#2139e1"
         fill-opacity="1"
         id="g13"><g
           transform="translate(734.51165,429.3417)"
           id="g12"><g
             id="g11"><path
               d="M 16.25,0 V -41.34375 H 1.703125 v -8.546875 h 38.5 v 8.546875 H 25.65625 V 0 Z m 0,0"
               id="path10" /></g></g></g><g
         fill="#2139e1"
         fill-opacity="1"
         id="g16"><g
           transform="translate(776.41953,429.3417)"
           id="g15"><g
             id="g14"><path
               d="m 4.703125,0 v -49.890625 h 9.40625 v 20.59375 h 18.53125 v -20.59375 H 42.0625 V 0 H 32.640625 V -20.75 H 14.109375 V 0 Z m 0,0"
               id="path13" /></g></g></g><g
         fill="#2139e1"
         fill-opacity="1"
         id="g19"><g
           transform="translate(823.17391,429.3417)"
           id="g18"><g
             id="g17"><path
               d="M 22.03125,1 C 18.175781,1 14.773438,0.3125 11.828125,-1.0625 8.878906,-2.445312 6.570312,-4.421875 4.90625,-6.984375 3.25,-9.546875 2.421875,-12.632812 2.421875,-16.25 v -2 H 11.6875 v 2 c 0,2.992188 0.925781,5.234375 2.78125,6.734375 1.851562,1.5 4.375,2.25 7.5625,2.25 3.226562,0 5.640625,-0.640625 7.234375,-1.921875 1.59375,-1.289062 2.390625,-2.929688 2.390625,-4.921875 0,-1.382813 -0.398438,-2.503906 -1.1875,-3.359375 -0.78125,-0.851562 -1.921875,-1.550781 -3.421875,-2.09375 -1.492187,-0.550781 -3.308594,-1.0625 -5.453125,-1.53125 l -1.640625,-0.359375 C 16.535156,-22.210938 13.601562,-23.175781 11.15625,-24.34375 8.707031,-25.507812 6.828125,-27.039062 5.515625,-28.9375 4.210938,-30.84375 3.5625,-33.316406 3.5625,-36.359375 c 0,-3.039063 0.722656,-5.640625 2.171875,-7.796875 1.445313,-2.164062 3.488281,-3.828125 6.125,-4.984375 2.644531,-1.164063 5.75,-1.75 9.3125,-1.75 3.5625,0 6.734375,0.605469 9.515625,1.8125 2.78125,1.210937 4.960938,3.015625 6.546875,5.421875 1.59375,2.398438 2.390625,5.402344 2.390625,9.015625 V -32.5 h -9.265625 v -2.140625 c 0,-1.90625 -0.371094,-3.4375 -1.109375,-4.59375 -0.730469,-1.164063 -1.789062,-2.019531 -3.171875,-2.5625 -1.375,-0.550781 -3.011719,-0.828125 -4.90625,-0.828125 -2.855469,0 -4.960937,0.539062 -6.3125,1.609375 -1.355469,1.0625 -2.03125,2.523437 -2.03125,4.375 0,1.242187 0.316406,2.289063 0.953125,3.140625 0.644531,0.855469 1.609375,1.570312 2.890625,2.140625 1.289063,0.5625 2.929687,1.0625 4.921875,1.5 l 1.640625,0.34375 c 3.5625,0.761719 6.660156,1.734375 9.296875,2.921875 2.644531,1.1875 4.703125,2.761719 6.171875,4.71875 1.476563,1.949219 2.21875,4.4375 2.21875,7.46875 0,3.042969 -0.777344,5.71875 -2.328125,8.03125 -1.542969,2.304688 -3.730469,4.109375 -6.5625,5.421875 C 29.207031,0.347656 25.875,1 22.03125,1 Z m 0,0"
               id="path16" /></g></g></g><g
         fill="#2139e1"
         fill-opacity="1"
         id="g22"><g
           transform="translate(866.36468,429.3417)"
           id="g21"><g
             id="g20"><path
               d="M 24.09375,1 C 17.820312,1 12.832031,-0.722656 9.125,-4.171875 5.414062,-7.617188 3.5625,-12.546875 3.5625,-18.953125 V -30.9375 c 0,-6.414062 1.851562,-11.34375 5.5625,-14.78125 3.707031,-3.445312 8.695312,-5.171875 14.96875,-5.171875 6.269531,0 11.257812,1.726563 14.96875,5.171875 3.707031,3.4375 5.5625,8.367188 5.5625,14.78125 v 11.984375 c 0,6.40625 -1.855469,11.335937 -5.5625,14.78125 C 35.351562,-0.722656 30.363281,1 24.09375,1 Z m 0,-8.40625 c 3.519531,0 6.253906,-1.019531 8.203125,-3.0625 1.945313,-2.050781 2.921875,-4.785156 2.921875,-8.203125 V -31.21875 c 0,-3.425781 -0.976562,-6.160156 -2.921875,-8.203125 -1.949219,-2.039063 -4.683594,-3.0625 -8.203125,-3.0625 -3.46875,0 -6.195312,1.023437 -8.171875,3.0625 -1.96875,2.042969 -2.953125,4.777344 -2.953125,8.203125 v 12.546875 c 0,3.417969 0.984375,6.152344 2.953125,8.203125 1.976563,2.042969 4.703125,3.0625 8.171875,3.0625 z m 0,0"
               id="path19" /></g></g></g><g
         fill="#2139e1"
         fill-opacity="1"
         id="g25"><g
           transform="translate(914.54448,429.3417)"
           id="g24"><g
             id="g23"><path
               d="M 24.09375,1 C 17.820312,1 12.832031,-0.722656 9.125,-4.171875 5.414062,-7.617188 3.5625,-12.546875 3.5625,-18.953125 V -30.9375 c 0,-6.414062 1.851562,-11.34375 5.5625,-14.78125 3.707031,-3.445312 8.695312,-5.171875 14.96875,-5.171875 6.269531,0 11.257812,1.726563 14.96875,5.171875 3.707031,3.4375 5.5625,8.367188 5.5625,14.78125 v 11.984375 c 0,6.40625 -1.855469,11.335937 -5.5625,14.78125 C 35.351562,-0.722656 30.363281,1 24.09375,1 Z m 0,-8.40625 c 3.519531,0 6.253906,-1.019531 8.203125,-3.0625 1.945313,-2.050781 2.921875,-4.785156 2.921875,-8.203125 V -31.21875 c 0,-3.425781 -0.976562,-6.160156 -2.921875,-8.203125 -1.949219,-2.039063 -4.683594,-3.0625 -8.203125,-3.0625 -3.46875,0 -6.195312,1.023437 -8.171875,3.0625 -1.96875,2.042969 -2.953125,4.777344 -2.953125,8.203125 v 12.546875 c 0,3.417969 0.984375,6.152344 2.953125,8.203125 1.976563,2.042969 4.703125,3.0625 8.171875,3.0625 z m 0,0"
               id="path22" /></g></g></g><g
         fill="#2139e1"
         fill-opacity="1"
         id="g28"><g
           transform="translate(962.72428,429.3417)"
           id="g27"><g
             id="g26"><path
               d="M 4.703125,0 V -49.890625 H 22.59375 L 32.5,-6.421875 h 1.28125 v -43.46875 h 9.265625 V 0 H 25.15625 L 15.25,-43.484375 H 13.96875 V 0 Z m 0,0"
               id="path25" /></g></g></g></g></g></svg>
